<svg width="25" height="30" viewBox="0 0 25 30" fill="none" xmlns="http://www.w3.org/2000/svg">
<path d="M12.4026 1.5047C16.2729 1.5047 19.42 4.63474 19.4202 8.49982V9.69513C19.4203 9.80728 19.5111 9.89812 19.6233 9.89825C21.496 9.89825 23.0305 11.422 23.0305 13.2967V25.2869C23.0305 27.1617 21.496 28.6854 19.6233 28.6854H5.18188C3.30922 28.6854 1.77466 27.1617 1.77466 25.2869V13.2967C1.77466 11.422 3.30922 9.89825 5.18188 9.89825C5.29405 9.89812 5.38483 9.80728 5.38501 9.69513V8.49982C5.38517 4.63474 8.53223 1.5047 12.4026 1.5047ZM12.4026 17.8934C11.6276 17.8934 10.9954 18.5286 10.9954 19.2918C10.9954 20.0551 11.6276 20.6902 12.4026 20.6902C13.1776 20.6902 13.8098 20.0551 13.8098 19.2918C13.8098 18.5286 13.1776 17.8934 12.4026 17.8934ZM12.4026 5.78302C10.8935 5.78302 9.67228 7.00526 9.67212 8.49982C9.67212 9.27189 10.2976 9.89806 11.0696 9.89825H13.7356C14.5076 9.89807 15.1331 9.27189 15.1331 8.49982C15.1329 7.00526 13.9116 5.78302 12.4026 5.78302Z" stroke="#8E949F" stroke-width="2"/>
</svg>
