<svg width="24" height="24" viewBox="0 0 24 24" fill="none" xmlns="http://www.w3.org/2000/svg">
<path d="M10.082 17.2103L18.6103 8.682L17.6667 7.73833L10.082 15.323L6.282 11.523L5.33833 12.4667L10.082 17.2103ZM12.0043 24C10.345 24 8.78489 23.6851 7.324 23.0553C5.86333 22.4256 4.59267 21.5709 3.512 20.4913C2.43133 19.4118 1.57589 18.1422 0.945667 16.6827C0.315222 15.2233 0 13.6639 0 12.0043C0 10.345 0.314889 8.78489 0.944667 7.324C1.57444 5.86333 2.42911 4.59267 3.50867 3.512C4.58822 2.43133 5.85778 1.57589 7.31733 0.945667C8.77667 0.315222 10.3361 0 11.9957 0C13.655 0 15.2151 0.31489 16.676 0.944668C18.1367 1.57445 19.4073 2.42911 20.488 3.50867C21.5687 4.58822 22.4241 5.85778 23.0543 7.31733C23.6848 8.77667 24 10.3361 24 11.9957C24 13.655 23.6851 15.2151 23.0553 16.676C22.4256 18.1367 21.5709 19.4073 20.4913 20.488C19.4118 21.5687 18.1422 22.4241 16.6827 23.0543C15.2233 23.6848 13.6639 24 12.0043 24ZM12 22.6667C14.9778 22.6667 17.5 21.6333 19.5667 19.5667C21.6333 17.5 22.6667 14.9778 22.6667 12C22.6667 9.02222 21.6333 6.5 19.5667 4.43333C17.5 2.36667 14.9778 1.33333 12 1.33333C9.02222 1.33333 6.5 2.36667 4.43333 4.43333C2.36667 6.5 1.33333 9.02222 1.33333 12C1.33333 14.9778 2.36667 17.5 4.43333 19.5667C6.5 21.6333 9.02222 22.6667 12 22.6667Z" fill="#0057B0"/>
</svg>
